<?xml version="1.0" encoding="UTF-8" standalone="no"?>
<!DOCTYPE svg PUBLIC "-//W3C//DTD SVG 1.1//EN" "http://www.w3.org/Graphics/SVG/1.1/DTD/svg11.dtd">
<svg width="100%" height="100%" viewBox="0 0 1301 256" version="1.1" xmlns="http://www.w3.org/2000/svg" xmlns:xlink="http://www.w3.org/1999/xlink" xml:space="preserve" xmlns:serif="http://www.serif.com/" style="fill-rule:evenodd;clip-rule:evenodd;stroke-linejoin:round;stroke-miterlimit:2;">
    <g id="Layer-1" serif:id="Layer 1" transform="matrix(1,0,0,1,-18.0002,98.659)">
        <g transform="matrix(1.12437,0,0,1.12437,-22.2965,-134.795)">
            <g transform="matrix(192,0,0,192,312.344,212.675)">
                <path d="M0.059,-0.705L0.059,0L0.206,0L0.206,-0.222L0.338,-0.222C0.486,-0.222 0.589,-0.319 0.589,-0.463C0.589,-0.608 0.49,-0.705 0.345,-0.705L0.059,-0.705ZM0.206,-0.588L0.306,-0.588C0.391,-0.588 0.439,-0.543 0.439,-0.463C0.439,-0.382 0.39,-0.337 0.306,-0.337L0.206,-0.337L0.206,-0.588Z" style="fill:rgb(51,51,51);fill-rule:nonzero;"/>
            </g>
            <g transform="matrix(192,0,0,192,424.354,212.675)">
                <path d="M0.202,0.008C0.267,0.008 0.332,-0.024 0.361,-0.08L0.364,-0.08L0.364,0L0.502,0L0.502,-0.36C0.502,-0.465 0.415,-0.535 0.28,-0.535C0.142,-0.535 0.055,-0.465 0.05,-0.363L0.18,-0.363C0.187,-0.402 0.221,-0.428 0.274,-0.428C0.328,-0.428 0.362,-0.4 0.362,-0.351L0.362,-0.316L0.23,-0.309C0.1,-0.301 0.026,-0.246 0.026,-0.15C0.026,-0.056 0.102,0.008 0.202,0.008ZM0.249,-0.095C0.2,-0.095 0.168,-0.119 0.168,-0.158C0.168,-0.195 0.198,-0.219 0.251,-0.223L0.362,-0.23L0.362,-0.192C0.362,-0.135 0.311,-0.095 0.249,-0.095Z" style="fill:rgb(51,51,51);fill-rule:nonzero;"/>
            </g>
            <g transform="matrix(192,0,0,192,529.427,212.675)">
                <path d="M0.046,0L0.189,0L0.189,-0.292C0.189,-0.366 0.23,-0.409 0.3,-0.409C0.321,-0.409 0.34,-0.406 0.352,-0.401L0.352,-0.526C0.342,-0.529 0.328,-0.532 0.312,-0.532C0.25,-0.532 0.206,-0.496 0.187,-0.429L0.184,-0.429L0.184,-0.523L0.046,-0.523L0.046,0Z" style="fill:rgb(51,51,51);fill-rule:nonzero;"/>
            </g>
            <g transform="matrix(192,0,0,192,599.249,212.675)">
                <path d="M0.12,-0.594C0.161,-0.594 0.194,-0.627 0.194,-0.667C0.194,-0.708 0.161,-0.741 0.12,-0.741C0.078,-0.741 0.045,-0.708 0.045,-0.667C0.045,-0.627 0.078,-0.594 0.12,-0.594ZM0.049,0L0.191,0L0.191,-0.523L0.049,-0.523L0.049,0Z" style="fill:rgb(51,51,51);fill-rule:nonzero;"/>
            </g>
            <g transform="matrix(192,0,0,192,645.26,212.675)">
                <path d="M0.038,-0.37C0.038,-0.291 0.089,-0.24 0.19,-0.219L0.279,-0.2C0.331,-0.188 0.349,-0.173 0.349,-0.145C0.349,-0.111 0.315,-0.089 0.262,-0.089C0.205,-0.089 0.172,-0.113 0.164,-0.159L0.024,-0.159C0.034,-0.056 0.117,0.011 0.262,0.011C0.396,0.011 0.491,-0.057 0.491,-0.16C0.491,-0.236 0.446,-0.279 0.336,-0.302L0.247,-0.321C0.194,-0.333 0.175,-0.351 0.175,-0.377C0.175,-0.412 0.208,-0.435 0.257,-0.435C0.31,-0.435 0.341,-0.406 0.346,-0.363L0.477,-0.363C0.474,-0.466 0.391,-0.535 0.257,-0.535C0.124,-0.535 0.038,-0.469 0.038,-0.37Z" style="fill:rgb(51,51,51);fill-rule:nonzero;"/>
            </g>
            <g transform="matrix(192,0,0,192,744.051,212.675)">
                <path d="M0.05,0L0.192,0L0.192,-0.299C0.192,-0.368 0.232,-0.415 0.299,-0.415C0.364,-0.415 0.397,-0.374 0.397,-0.307L0.397,0L0.54,0L0.54,-0.337C0.54,-0.458 0.474,-0.533 0.357,-0.533C0.278,-0.533 0.221,-0.496 0.193,-0.43L0.19,-0.43L0.19,-0.705L0.05,-0.705L0.05,0Z" style="fill:rgb(51,51,51);fill-rule:nonzero;"/>
            </g>
            <g transform="matrix(192,0,0,192,894.196,212.675)">
                <path d="M0.206,0L0.206,-0.215L0.272,-0.294L0.481,0L0.657,0L0.378,-0.392L0.639,-0.705L0.475,-0.705L0.21,-0.383L0.206,-0.383L0.206,-0.705L0.059,-0.705L0.059,0L0.206,0Z" style="fill:rgb(51,51,51);fill-rule:nonzero;"/>
            </g>
            <g transform="matrix(192,0,0,192,1021.02,212.675)">
                <path d="M0.12,-0.594C0.161,-0.594 0.194,-0.627 0.194,-0.667C0.194,-0.708 0.161,-0.741 0.12,-0.741C0.078,-0.741 0.045,-0.708 0.045,-0.667C0.045,-0.627 0.078,-0.594 0.12,-0.594ZM0.049,0L0.191,0L0.191,-0.523L0.049,-0.523L0.049,0Z" style="fill:rgb(51,51,51);fill-rule:nonzero;"/>
            </g>
            <g transform="matrix(192,0,0,192,1067.03,212.675)">
                <path d="M0.084,-0.644L0.084,-0.523L0.011,-0.523L0.011,-0.416L0.084,-0.416L0.084,-0.141C0.084,-0.039 0.132,0.002 0.255,0.002C0.284,0.002 0.309,0 0.323,-0.004L0.323,-0.109C0.314,-0.107 0.301,-0.106 0.289,-0.106C0.247,-0.106 0.227,-0.125 0.227,-0.166L0.227,-0.416L0.324,-0.416L0.324,-0.523L0.227,-0.523L0.227,-0.644L0.084,-0.644Z" style="fill:rgb(51,51,51);fill-rule:nonzero;"/>
            </g>
        </g>
        <g transform="matrix(10.8299,0,0,10.8299,-179.428,967.798)">
            <g transform="matrix(1,0,0,1,18.0002,-98.659)">
                <path d="M1.155,7.4L10.804,11.6C11.567,11.931 12.433,11.931 13.196,11.6L22.845,7.4C23.391,7.162 23.747,6.62 23.747,6.025C23.747,5.429 23.391,4.887 22.845,4.649L13.2,0.452C12.437,0.122 11.571,0.122 10.808,0.452L1.157,4.646C0.61,4.883 0.254,5.426 0.254,6.022C0.254,6.618 0.61,7.161 1.157,7.398L1.155,7.4Z" style="fill:rgb(54,52,163);fill-rule:nonzero;"/>
            </g>
            <g transform="matrix(1,0,0,1,18.0002,-98.659)">
                <path d="M22.844,10.648L21.6,10.106C21.345,9.995 21.055,9.995 20.8,10.106L12,13.933L3.2,10.106C2.945,9.995 2.655,9.995 2.4,10.106L1.156,10.647C0.609,10.884 0.253,11.427 0.253,12.023C0.253,12.619 0.609,13.162 1.156,13.399L10.8,17.593C11.563,17.924 12.429,17.924 13.192,17.593L22.841,13.4C23.388,13.163 23.744,12.62 23.744,12.024C23.744,11.428 23.388,10.885 22.841,10.648L22.844,10.648Z" style="fill:rgb(0,64,221);fill-rule:nonzero;"/>
            </g>
            <g transform="matrix(1,0,0,1,18.0002,-98.659)">
                <path d="M22.844,16.6L21.6,16.061C21.345,15.95 21.055,15.95 20.8,16.061L12,19.888L3.2,16.061C2.945,15.95 2.655,15.95 2.4,16.061L1.156,16.601C0.609,16.838 0.253,17.381 0.253,17.977C0.253,18.573 0.609,19.116 1.156,19.353L10.8,23.548C11.563,23.879 12.429,23.879 13.192,23.548L22.837,19.355C23.385,19.118 23.741,18.575 23.741,17.978C23.741,17.382 23.385,16.839 22.837,16.602L22.844,16.6Z" style="fill:rgb(64,156,255);fill-rule:nonzero;"/>
            </g>
        </g>
        <g transform="matrix(4.12603,-0.0172559,0.00875192,2.09265,148.475,-47.2689)">
            <g transform="matrix(1,0,0,1,-12,-12)">
                <path d="M9.738,10.3C9.54,10.114 9.229,10.114 9.031,10.3L0.768,18.561C0.298,19.028 0.034,19.665 0.035,20.328C0.069,21.687 1.176,22.794 2.535,22.828C3.197,22.831 3.833,22.568 4.3,22.1L12.563,13.837C12.757,13.643 12.757,13.324 12.563,13.13L9.738,10.3Z" style="fill:white;fill-rule:nonzero;"/>
                <path d="M23.525,9.237L22.465,8.176C22.077,7.788 21.439,7.788 21.051,8.176C20.658,8.552 20.03,8.552 19.637,8.176C19.355,7.895 19.266,7.471 19.413,7.1C19.627,6.548 19.495,5.92 19.078,5.5C17.646,4.062 17.071,3.485 16.785,3.254L16.792,3.254C14.024,0.673 9.75,0.48 6.761,2.8C6.407,3.059 6.265,3.524 6.413,3.937C6.564,4.347 6.963,4.616 7.4,4.6C8.798,4.54 10.16,5.068 11.152,6.055C11.669,6.573 11.931,6.972 11.931,7.241C11.928,7.361 11.873,7.473 11.78,7.549L10.798,8.53C10.604,8.724 10.604,9.043 10.798,9.237L13.626,12.065C13.82,12.259 14.139,12.259 14.333,12.065L15.394,11.004C15.787,10.628 16.414,10.628 16.807,11.004C17.195,11.392 17.195,12.03 16.807,12.418C16.419,12.806 16.419,13.444 16.807,13.832L17.868,14.9C18.45,15.482 19.407,15.482 19.989,14.9L23.525,11.364C24.107,10.782 24.107,9.825 23.525,9.243L23.525,9.237Z" style="fill:url(#_Linear1);fill-rule:nonzero;"/>
            </g>
        </g>
    </g>
    <defs>
        <linearGradient id="_Linear1" x1="0" y1="0" x2="1" y2="0" gradientUnits="userSpaceOnUse" gradientTransform="matrix(17.6063,0,0,14.1552,6.35499,8.25865)"><stop offset="0" style="stop-color:white;stop-opacity:1"/><stop offset="1" style="stop-color:white;stop-opacity:1"/></linearGradient>
    </defs>
</svg>
